<svg xmlns="http://www.w3.org/2000/svg" viewBox="0 0 400 300" role="img" aria-label="Canyon template preview">
  <defs>
    <linearGradient id="canyon-bg" x1="0" y1="0" x2="0" y2="1">
      <stop offset="0%" stop-color="#f0fdf4"/>
      <stop offset="100%" stop-color="#dcfce7"/>
    </linearGradient>
    <linearGradient id="canyon-img" x1="0" y1="0" x2="1" y2="1">
      <stop offset="0%" stop-color="#86efac"/>
      <stop offset="100%" stop-color="#15803d"/>
    </linearGradient>
  </defs>
  <rect width="400" height="300" fill="url(#canyon-bg)"/>
  <rect x="0" y="0" width="400" height="32" fill="#ffffff"/>
  <rect x="16" y="12" width="64" height="8" rx="2" fill="#14532d"/>
  <rect x="290" y="12" width="28" height="8" rx="2" fill="#15803d"/>
  <rect x="324" y="12" width="28" height="8" rx="2" fill="#15803d"/>
  <rect x="358" y="12" width="28" height="8" rx="2" fill="#15803d"/>
  <rect x="30" y="100" width="150" height="14" rx="4" fill="#14532d"/>
  <rect x="30" y="122" width="120" height="14" rx="4" fill="#14532d"/>
  <rect x="30" y="148" width="160" height="5" rx="2" fill="#15803d"/>
  <rect x="30" y="160" width="130" height="5" rx="2" fill="#15803d"/>
  <rect x="30" y="180" width="74" height="22" rx="11" fill="#15803d"/>
  <rect x="220" y="80" width="160" height="160" rx="16" fill="url(#canyon-img)"/>
</svg>
