<svg xmlns="http://www.w3.org/2000/svg" viewBox="0 0 400 300" role="img" aria-label="Default template preview">
  <defs>
    <linearGradient id="bg-default" x1="0" y1="0" x2="0" y2="1">
      <stop offset="0%" stop-color="#f1f5f9"/>
      <stop offset="100%" stop-color="#e2e8f0"/>
    </linearGradient>
  </defs>
  <rect width="400" height="300" fill="url(#bg-default)"/>
  <rect x="0" y="0" width="400" height="32" fill="#ffffff"/>
  <rect x="16" y="12" width="64" height="8" rx="2" fill="#1e293b"/>
  <rect x="280" y="12" width="32" height="8" rx="2" fill="#94a3b8"/>
  <rect x="320" y="12" width="32" height="8" rx="2" fill="#94a3b8"/>
  <rect x="360" y="12" width="24" height="8" rx="2" fill="#94a3b8"/>
  <rect x="60" y="80" width="280" height="14" rx="3" fill="#1e293b"/>
  <rect x="80" y="106" width="240" height="14" rx="3" fill="#1e293b"/>
  <rect x="100" y="138" width="200" height="6" rx="2" fill="#64748b"/>
  <rect x="80" y="152" width="240" height="6" rx="2" fill="#64748b"/>
  <rect x="170" y="180" width="60" height="22" rx="6" fill="#3b82f6"/>
  <rect x="40" y="240" width="320" height="40" rx="6" fill="#ffffff" stroke="#cbd5e1"/>
</svg>
